<svg id="Layer_1" data-name="Layer 1" xmlns="http://www.w3.org/2000/svg" viewBox="0 0 231 231.02"><defs><style>.cls-1{font-size:24px;font-family:Poppins-Regular, Poppins;}</style></defs><title>kms</title><path d="M409.5,282a109.49,109.49,0,1,1-77.43,32.07A108.79,108.79,0,0,1,409.5,282m0-6A115.5,115.5,0,1,0,525,391.5,115.5,115.5,0,0,0,409.5,276Z" transform="translate(-294 -276)"/><text class="cls-1" transform="matrix(0.78, -0.62, 0.62, 0.78, 74.26, 69.08)"> </text><text class="cls-1" transform="matrix(0.84, -0.55, 0.55, 0.84, 78.97, 65.31)"> </text><text class="cls-1" transform="matrix(0.91, -0.41, 0.41, 0.91, 83.64, 61.83)">K</text><text class="cls-1" transform="translate(96.29 56.45) rotate(-15.07)"> </text><text class="cls-1" transform="translate(101.59 54.19) rotate(-3.27)">M</text><text class="cls-1" transform="translate(121.42 53.7) rotate(8.44)"> </text><text class="cls-1" transform="matrix(0.95, 0.3, -0.3, 0.95, 127.26, 54.22)">S</text><text class="cls-1" transform="translate(140.05 58.47) rotate(26.19)"> </text><text class="cls-1" transform="matrix(0.85, 0.53, -0.53, 0.85, 145.46, 61.11)"> </text><text class="cls-1" transform="translate(150.58 64.26) rotate(37.36)"> </text><text class="cls-1" transform="translate(155.39 67.91) rotate(42.98)"> </text><text class="cls-1" transform="translate(159.81 72) rotate(48.55)"> </text><text class="cls-1" transform="translate(163.79 76.48) rotate(54.05)"> </text><text class="cls-1" transform="matrix(0.51, 0.86, -0.86, 0.51, 167.36, 81.38)"> </text><text class="cls-1" transform="translate(170.42 86.55) rotate(65.09)"> </text><text class="cls-1" transform="translate(172.98 92.01) rotate(70.69)"> </text><text class="cls-1" transform="translate(174.99 97.69) rotate(76.3)"> </text><text class="cls-1" transform="matrix(0.14, 0.99, -0.99, 0.14, 176.43, 103.53)"> </text><text class="cls-1" transform="translate(177.3 109.49) rotate(87.46)"> </text><text class="cls-1" transform="matrix(-0.05, 1, -1, -0.05, 177.59, 115.51)"> </text><text class="cls-1" transform="translate(177.29 121.53) rotate(98.54)"> </text><text class="cls-1" transform="translate(176.41 127.49) rotate(104.07)"> </text><text class="cls-1" transform="translate(174.96 133.35) rotate(109.62)"> </text><text class="cls-1" transform="translate(172.96 139.03) rotate(115.18)"> </text><text class="cls-1" transform="matrix(-0.59, 0.81, -0.81, -0.59, 171.1, 144.49)">C</text><text class="cls-1" transform="translate(160.24 158.56) rotate(136.93)"> </text><text class="cls-1" transform="translate(156.31 162.86) rotate(146.66)">A</text><text class="cls-1" transform="translate(143.18 171.08) rotate(156.42)"> </text><text class="cls-1" transform="translate(138 173.75) rotate(165.6)">R</text><text class="cls-1" transform="translate(124.44 176.95) rotate(174.74)"> </text><text class="cls-1" transform="matrix(-1, -0.06, 0.06, -1, 118.65, 177.82)">P</text><text class="cls-1" transform="translate(105.39 176.75) rotate(-167.68)"> </text><text class="cls-1" transform="translate(99.59 175.74) rotate(-159.59)">E</text><text class="cls-1" transform="translate(88.64 171.49) rotate(-151.46)"> </text><text class="cls-1" transform="translate(83.38 168.95) rotate(-143.01)">T</text><text class="cls-1" transform="translate(73.59 161.33) rotate(-134.53)"> </text><text class="cls-1" transform="translate(69.28 157.42) rotate(-125.7)">S</text><text x="-294" y="-276"/><circle cx="115.5" cy="115.5" r="2.5"/></svg>